<svg width="512" height="512" xmlns="http://www.w3.org/2000/svg">
 <!-- Created with Method Draw - http://github.com/duopixel/Method-Draw/ -->

 <g>
  <title>background</title>
  <rect fill="none" id="canvas_background" height="402" width="582" y="-1" x="-1"/>
 </g>
 <g>
  <title>Layer 1</title>
  <path fill="none" stroke="#000" stroke-width="8" id="svg_13" d="m161.76088,301.49998c0,1 0.59123,5.02921 0,11c-0.50244,5.07422 -2.12257,12.98087 -3,19c-1.16295,7.97794 -1,11 -1,16c0,3 -0.49345,3.87858 -1,7c-0.64073,3.94837 0.66251,6.31 -1,9c-0.7435,1.20301 -1,4 -1,5c0,2 0,3 0,3c0,1 0,1 0,2c0,1 -1,1 -1,1c0,0 0.22975,1.02677 0,2c-0.51374,2.17624 0.41422,3.58579 -1,5c-0.7071,0.7071 -1,1 -1,2c0,0 -1,0 -1,0c0,-4 -0.80092,-6.06457 0,-11c0.50655,-3.12142 2,-9 3,-12c1,-3 2.78986,-10.07843 4,-13c1.71141,-4.13171 2.56951,-7.13299 4,-11c0.77581,-2.09716 2,-5 2,-5c1,-1 1.2929,-2.2929 2,-3c0.70711,-0.70709 1.4588,-0.69345 2,-2c0.38269,-0.92388 0.69255,-2.186 2,-4c0.82691,-1.14727 2,-2 3,-3c1,-1 1.0535,-1.54049 3,-2c2.17626,-0.51373 4.69344,-1.4588 6,-2c2.77164,-1.14804 4,-1 4,-1c2,0 2,0 4,-1c0,0 0.69344,-0.4588 2,-1c2.77164,-1.14804 4.87856,0.49347 8,1c0.98709,0.16019 2,0 3,0l0,0l1,0l0,1" transform="rotate(-15 177.08290100097656,342.4999694824219)"/>
  <path fill="none" stroke="#000" stroke-width="8" id="svg_14" d="m227.76088,339.49998c0,0 1.70923,-3.63992 5,-11c1.29074,-2.88687 6.14682,-8.86325 8,-11c3.276,-3.77728 6,-5 12,-8c2,-1 6.96384,-2.11587 10,-3c3.95868,-1.15277 7,-1 10,-1c2,0 8,0 11,0c2,0 3.88153,0.19028 7,2c1.93399,1.12235 3.97251,2.6475 5,7c0.91901,3.89301 -0.37283,13.0116 0,19c0.50098,8.0467 2.12128,11.0904 1,18c-0.50653,3.12143 -1.69253,7.18601 -3,9c-4.13452,5.73636 -6.19799,5.63297 -12,9c-3.11847,1.80973 -8,5 -9,5c-1,0 -3,1 -5,1c-1,0 -2.90634,-0.10339 -4,-1c-2.78833,-2.28588 -3.70547,-3.34619 -6,-5c-3.62799,-2.61489 -5.88153,-4.19027 -9,-6c-1.93399,-1.12234 -3.61731,-3.07611 -4,-4c-1.08239,-2.61312 -2,-4 -3,-6c-1,-2 -2.2565,-4.79699 -3,-6c-1.6625,-2.69 -1.71411,-4.21167 -4,-7c-0.8966,-1.09365 -2.14935,-2.47427 -3,-3c-1.9021,-1.17556 -2,-3 -2,-3c0,0 0,-2 0,-2c0,-1 0,-2 0,-2c0,-1 0,-1 0,-2l0,0"/>
  <g id="svg_22" transform="rotate(5 351.2608947753902,349.9999999999999) ">
   <path fill="none" stroke-width="8" id="svg_15" d="m315.76088,305.49998c0,0 3.45288,0.60209 11.86441,11.47873c5.05664,6.53854 12.50147,13.79579 18.98305,21.19149c11.89859,13.57671 14.69785,18.34574 21.35593,27.37234c2.55327,3.46153 6.77482,8.86767 7.11865,9.71277c1.23963,3.04701 3.10528,3.59911 3.55932,4.41489c0.6421,1.15365 1.91884,3.59912 2.37288,4.41489c0.6421,1.15366 2.37288,2.64894 2.37288,2.64894c0,1.76596 1.18644,1.76596 1.18644,1.76596l1.18644,0" stroke="#000"/>
   <path fill="none" stroke-width="8" id="svg_16" d="m392.76088,312.49998c0,0 -4.40402,0.48212 -9,4.68572c-2.22937,2.03906 -7,4.68571 -15,11.71429c-4,3.51428 -9.74673,8.63499 -14,11.71428c-5.70633,4.13128 -8.74673,7.46357 -13,10.54286c-1.9021,1.37709 -4.90634,4.80683 -6,5.85714c-2.78833,2.67776 -3.186,3.15411 -5,4.68572c-1.14727,0.96865 -2.61731,2.43201 -3,3.51428c-1.08239,3.0611 -2.29291,3.85741 -3,4.68572c-0.70709,0.8283 -1.4588,-0.3591 -2,1.17142c-0.38269,1.08227 0.9021,3.30863 -1,4.68572c-0.85064,0.61585 -1.29291,0.34312 -2,1.17143c-0.70709,0.82831 -0.47427,3.68924 -1,4.68571c-1.17557,2.22818 -2,2.34286 -4,5.85714c0,0 -1.29291,1.51455 -2,2.34286c-0.70709,0.82831 -1.4588,0.81233 -2,2.34286c-0.38269,1.08227 0,1.17143 0,2.34286l0,0l-1,0" stroke="#000"/>
  </g>
  <g id="svg_27">
   <path fill="none" stroke="#000" stroke-width="8" id="svg_9" d="m247.79687,84.49998c0,0 2,0 5,0c6,0 10,0 15,0c3,0 5.01291,0.16018 6,0c3.12144,-0.50653 5.87855,-1.49346 9,-2c1.97418,-0.32036 3,0 5,0l0,0l1,0l0,0"/>
   <path fill="none" stroke="#000" stroke-width="8" id="svg_10" d="m275.79687,88.49998c0,1 0,3 0,7c0,4 -0.49489,8.02045 0,14c0.50171,6.06205 2.79443,10.97698 2,19c-0.3116,3.14689 -0.75563,8.01499 -1,10c-0.50377,4.09221 -2.78986,10.07843 -4,13c-0.85572,2.06586 -1.95517,3.54915 -3,7c-0.86936,2.87128 -2,4 -2,4c-1,2 -1.82443,1.09789 -3,3c-0.52573,0.85065 -1,2 -2,3c-1,1 -1.93415,1.14429 -4,2c-2.92157,1.21015 -3.93415,1.14429 -6,2c-2.92157,1.21015 -4,2 -6,2c0,0 -1,0 -2,0c0,0 -0.02675,0.22976 -1,0c-2.17626,-0.51374 -3,-2 -4,-3c-1,-1 -1.797,-2.2565 -3,-3c-2.68999,-1.6625 -4.70546,-3.34619 -7,-5c-1.814,-1.30744 -2.297,-1.61383 -5,-4c-1.67633,-1.47984 -3,-3 -3,-3c-1,0 -1,-1 -1,-1c0,-1 0,-2 0,-2l0,-2"/>
   <path fill="none" stroke="#000" stroke-width="8" id="svg_11" d="m354.79687,92.49998c0,0 7.9031,1.43679 25,5c10.94516,2.28112 17.9223,3.27346 21,4c6.88189,1.62461 8,1 10,2c0,0 1.76999,0.1005 1,3c-2.06934,7.79218 -5.87137,9.0998 -9,13c-5.76892,7.19164 -8.75043,10.33329 -18,17c-5.84995,4.2164 -15.86588,11.2089 -22,15c-13.71634,8.47716 -19.88855,10.1941 -25,13c-3.92029,2.15204 -8.18601,3.69256 -10,5c-1.14728,0.82691 -2,2 -2,2c0,0 3.01703,0.58761 8,1c6.06204,0.50171 15,2 21,2c5,0 11,0 12,0c3,0 4,0 5,0c0,0 1,-1 2,-1c2,0 3,0 6,0c1,0 2,0 2,0c1,0 1,0 1,-1c0,0 1,-1 1,-1c1,0 1,0 1,0c1,0 1,0 4,0c2,0 4,1 6,1c2,0 3,1 3,1c1,0 1,0 2,0c0,0 0,0 1,0l0,0" transform="rotate(9 368.89390563964844,133.49998092651367)"/>
   <g id="svg_21" transform="rotate(-10 139.79685974121068,135.9999847412109) ">
    <path fill="none" stroke-width="8" id="svg_7" d="m101.79687,88.49998c0.95,0.97728 7.82498,8.5716 14.25,15.63637c13.79846,15.17241 17.28333,23.15255 30.4,38.11364c4.49897,5.1316 12.35,13.68181 14.25,15.63636c3.8,3.90909 5.11752,7.73766 7.6,8.79545c0.87768,0.374 2.17824,1.26351 2.85,1.95455c0.67175,0.69104 1.02232,0.60328 1.9,0.97727c1.24123,0.5289 1.60876,3.38019 2.85,3.90909c0.87768,0.374 0.95,0.97728 0.95,0.97728l0.95,0l0,-0.97728" stroke="#000"/>
    <path fill="none" stroke="#000" stroke-width="8" id="svg_8" d="m167.79687,89.49998c0,0 -1.10445,2.93294 -3,6c-4.23859,6.85817 -14.3853,27.77173 -19,36c-2.18758,3.90058 -3.4588,5.69344 -4,7c-0.38269,0.92388 0,2 -1,3c-1,1 -4,6 -5,8c-2,4 -4.1967,5.89351 -9,15c-2.08643,3.95562 -3.1731,5.85274 -4,7c-1.30745,1.814 -2.18601,3.69256 -4,5c-1.14727,0.82691 -1,2 -3,4c-1,1 -1,1 -1,2l-1,1l0,0"/>
   </g>
  </g>
  <ellipse fill="none" stroke-width="8" cx="255.999997" cy="255.999987" id="svg_29" rx="253.000003" ry="210.499979" stroke="#000"/>
  <g id="svg_30">
   <path fill="none" stroke-width="8" id="svg_12" d="m65.8993,255.0743c0,-0.82053 -0.45738,-1.67285 0,-4.10268c0.96426,-5.12251 5.32116,-11.70878 8.56627,-15.59017c5.13096,-6.13702 8.22353,-8.78731 15.22891,-11.4875c2.74774,-1.0591 9.4303,-2.86878 13.3253,-3.28214c5.66806,-0.60153 6.66265,0 10.46988,0c0.95181,0 2.85543,1.64107 4.75904,4.10267c1.90361,2.46161 4.22571,4.46064 9.51807,9.84643c2.61018,2.65625 7.56177,7.40044 8.56627,9.84643c2.71399,6.60873 3.80722,9.84643 3.80722,18.87232c0,4.10268 -0.28409,8.27632 -1.90361,17.23125c-1.35181,7.47466 -3.50134,10.7712 -4.75904,13.12857c-2.31908,4.34677 -4.5335,6.87654 -10.46987,9.84643c-3.68159,1.84184 -9.48313,4.23429 -13.32531,4.92321c-5.66831,1.01633 -9.51807,1.64107 -15.22891,1.64107c-2.85542,0 -6.78608,-1.54697 -7.61446,-2.46161c-3.4155,-3.77116 -4.53965,-6.06457 -6.66265,-9.02589c-1.58238,-2.20724 -2.99276,-8.15132 -3.80723,-9.84643c-2.30366,-4.7945 -2.99276,-6.51024 -3.80723,-8.20535c-1.15183,-2.39726 -0.9518,-3.28215 -0.9518,-6.56429c0,-1.64107 0,-3.28214 0,-4.92321c0,-0.82054 0,-2.46161 0,-4.10268c0,-1.64107 0,-4.10268 0,-6.56428c0,-2.46161 0,-4.10268 0,-5.74375c0,-1.64108 0.36424,-4.16513 0,-4.92322c-0.51512,-1.07207 -0.95181,-1.64107 -0.95181,-2.4616c0,-0.82054 0,-0.82054 0,-1.64108c0,0 0,0 0,1.64108c0,0.82053 0,5.74374 0,8.20535c0,6.56429 0.57274,9.91815 -0.95181,17.23125c-0.69415,3.32982 -1.42411,8.95022 -1.90361,12.30803c-0.58148,4.07193 0,6.56429 0,11.4875c0,4.10268 -0.80957,13.13163 -0.95181,15.59018c-0.47649,8.23603 -1.90361,11.4875 -1.90361,17.23125c0,0.82053 0,4.10268 0,4.92321c0,0.82054 0.15701,3.28773 0,4.92321c-0.47753,4.97413 -0.95181,6.56429 -0.95181,13.12858c0,2.4616 0,8.20535 0,10.66696c0,2.46161 0.63058,5.99811 -0.95181,8.20535c-0.70766,0.98711 -0.51445,3.32604 -0.9518,4.92322c-0.48899,1.78568 -0.95181,2.46161 -0.95181,4.10268c0,0.82053 0,0.82053 0,1.64107l0,0.82053l0,0l0,0" transform="rotate(-13 100.64026260375977,300.48035430908203)" stroke="#000"/>
   <path fill="none" stroke="#000" stroke-width="8" id="svg_24" d="m63.26088,389.49998c1,0 3,0 4,0c2,0 4,0 7,0c1,0 4,0 5,0c2,0 2.2929,-0.2929 3,-1c0.70711,-0.70709 2,0 2,0c1,0 2,-1 4,-1c2,0 5,0 8,0c1,0 2.07612,0.3827 3,0c1.30657,-0.54119 1,-1 1,-1l0,1"/>
  </g>
  <g id="svg_31">
   <path fill="none" stroke-width="8" id="svg_17" d="m409.76088,305.49998c0,0.75 1.36385,2.97288 2.44445,5.25c1.40894,2.96901 6.76489,9.98307 8.55555,11.25c5.06472,3.58345 2.68167,6.66642 6.11111,10.5c1.31514,1.47011 3.38584,4.52008 3.66667,5.25c0.6279,1.63218 2.06865,2.38951 3.66667,3.75c1.01066,0.86046 1.43378,2.13955 2.44444,3c1.59801,1.3605 0.75449,2.30709 1.22222,3c0.66147,0.97992 1.22222,1.5 1.22222,1.5c0,0 -0.86422,0.96969 0,1.5c0.86423,0.53032 0.358,0.21969 1.22223,0.75c0.86422,0.53032 1.22222,0.75 1.22222,0.75c0,1.5 0,2.25 1.22222,3.75l0,0l0,0.75l0,0" stroke="#000"/>
   <path fill="none" stroke-width="8" id="svg_18" d="m472.76088,304.49998c0,0.76316 -2.71875,4.57895 -4.53125,6.86843c-5.4375,6.86842 -9.46886,14.35169 -10.875,17.55263c-1.29637,2.95113 -4.53125,8.39474 -7.25,12.97368c-1.8125,3.05263 -3.69018,6.83277 -5.4375,9.1579c-2.82578,3.76024 -3.0246,4.81552 -4.53125,6.86842c-1.34759,1.83616 -5.59436,5.99286 -6.34375,6.86842c-1.18489,1.38436 -2.71875,4.57895 -4.53125,6.86842c-1.8125,2.28947 -3.625,5.34211 -4.53125,6.86842c-0.90625,1.52632 -2.87561,2.94024 -3.625,3.81579c-2.36975,2.76873 -3.34636,4.7209 -4.53125,6.10526c-0.74938,0.87556 -0.90625,1.52632 -1.8125,2.28948l0,0l0,0l0,0.76316" stroke="#000" transform="rotate(-10 443.7608947753906,347.99998474121094)"/>
  </g>
 </g>
</svg>